<svg width="977" height="68" viewBox="0 0 977 68" fill="none" xmlns="http://www.w3.org/2000/svg">
<path d="M0 68V0.799995H13.584V27.296H36.624V0.799995H50.16V68H36.624V40.88H13.584V68H0ZM3.744 64.352H9.888V37.088H40.368V64.352H46.512V4.4H40.368V30.896H9.888V4.4H3.744V64.352ZM95.5643 68L85.6763 58.112V10.688L95.5643 0.799995H127.436L137.324 10.688V58.112L127.436 68H95.5643ZM102.188 54.416H120.812L123.74 51.488V17.312L120.812 14.384H102.188L99.2603 17.312V51.488L102.188 54.416ZM97.4843 64.16H125.564L133.628 56.144V12.416L125.564 4.4H97.4843L89.4683 12.416V56.144L97.4843 64.16ZM100.508 58.016L95.6123 53.168V15.392L100.508 10.592H122.588L127.436 15.392V53.168L122.588 58.016H100.508ZM182.283 68L172.395 58.112V10.688L182.283 0.799995H214.155L224.043 10.688V58.112L214.155 68H182.283ZM188.907 54.416H207.531L210.459 51.488V17.312L207.531 14.384H188.907L185.979 17.312V51.488L188.907 54.416ZM184.203 64.16H212.283L220.347 56.144V12.416L212.283 4.4H184.203L176.187 12.416V56.144L184.203 64.16ZM187.227 58.016L182.331 53.168V15.392L187.227 10.592H209.307L214.155 15.392V53.168L209.307 58.016H187.227ZM259.594 68V0.799995H299.482L309.37 10.688V37.136L298.57 47.936H273.178V68H259.594ZM263.242 64.736H269.434V44.096H296.938L305.818 35.168V12.416L297.802 4.4H263.242V64.736ZM273.178 34.352H291.946L295.834 30.512V17.312L292.906 14.384H273.178V34.352ZM269.434 37.952V10.592H294.826L299.674 15.392V32.24L293.914 37.952H269.434ZM353.377 68L343.489 58.112V46.016H357.073V51.488L360.001 54.416H378.433L381.361 51.488V44.096L378.433 41.168H353.665L343.777 31.28V10.688L353.665 0.799995H384.145L394.033 10.688V22.784H380.449V17.312L377.521 14.384H360.289L357.313 17.312V24.656L360.289 27.584H385.057L394.945 37.472V58.112L385.057 68H353.377ZM355.105 64.304H383.089L391.105 56.288V38.816L383.569 31.232H358.561L353.665 26.384V15.488L358.513 10.688H379.489L384.145 15.248V19.376H390.289V12.272L382.513 4.496H355.489L347.473 12.512V29.312L355.585 37.472H380.545L384.913 41.696V53.312L380.065 58.16H358.129L353.521 53.552V49.424H347.329V56.528L355.105 64.304ZM430.02 68V54.416H443.172V14.384H430.02V0.799995H469.812V14.384H456.708V54.416H469.812V68H430.02ZM433.716 64.304H466.164V58.16H452.772V10.592H466.164V4.4H433.716V10.592H446.628V58.16H433.716V64.304ZM509.009 64.4H515.153V10.784H523.505L540.737 64.304H559.985V4.4H553.841V58.016H545.441L528.305 4.544H509.009V64.4ZM505.312 68V0.799995H531.377L547.985 54.224H550.049V0.799995H563.633V68H537.569L520.865 14.432H518.897V68H505.312ZM609.033 68L599.145 58.112V46.016H612.729V51.488L615.657 54.416H634.089L637.017 51.488V44.096L634.089 41.168H609.321L599.433 31.28V10.688L609.321 0.799995H639.801L649.689 10.688V22.784H636.105V17.312L633.177 14.384H615.945L612.969 17.312V24.656L615.945 27.584H640.713L650.601 37.472V58.112L640.713 68H609.033ZM610.761 64.304H638.745L646.761 56.288V38.816L639.225 31.232H614.217L609.321 26.384V15.488L614.169 10.688H635.145L639.801 15.248V19.376H645.945V12.272L638.169 4.496H611.145L603.129 12.512V29.312L611.241 37.472H636.201L640.569 41.696V53.312L635.721 58.16H613.785L609.177 53.552V49.424H602.985V56.528L610.761 64.304ZM685.676 68V54.416H698.828V14.384H685.676V0.799995H725.468V14.384H712.364V54.416H725.468V68H685.676ZM689.372 64.304H721.82V58.16H708.428V10.592H721.82V4.4H689.372V10.592H702.284V58.16H689.372V64.304ZM770.377 68L760.489 58.112V10.688L770.377 0.799995H800.905L810.793 10.688V22.784H797.257V17.312L794.329 14.384H776.905L774.025 17.408V51.536L776.905 54.416H794.329L797.257 51.488V44.864H783.961V31.328H810.793V58.112L800.905 68H770.377ZM772.249 64.16H799.081L807.145 56.144V35.072H787.705V41.264H800.953V53.168L796.105 58.016H775.273L770.377 53.264V15.392L775.273 10.592H796.105L800.953 15.392V19.232H807.145V12.416L799.081 4.4H772.249L764.233 12.416V56.144L772.249 64.16ZM846.281 68V0.799995H859.865V27.296H882.905V0.799995H896.441V68H882.905V40.88H859.865V68H846.281ZM850.025 64.352H856.169V37.088H886.649V64.352H892.793V4.4H886.649V30.896H856.169V4.4H850.025V64.352ZM946.694 68V14.384H930.038V0.799995H976.885V14.384H960.23V68H946.694ZM950.39 64.4H956.534V10.592H973.334V4.4H933.59V10.592H950.39V64.4Z" fill="white"/>
</svg>
