<svg width="645" height="68" fill="none" xmlns="http://www.w3.org/2000/svg">
  <path d="M3.7 64.4h6.1V10.8h8.4l17.2 53.5h19.3V4.4h-6.2V58h-8.4L23 4.5H3.7v59.9ZM0 68V.8h26l16.7 53.4h2V.8h13.6V68h-26L15.6 14.4h-2V68H0Zm94.3 0V.8h37.5l10 9.9v17.1l-4.3 4.3 6.4 6.5V58L134 68H94.3Zm3.9-3.6h33.9l8.1-8.2V40l-7.4-7.5h-.9l6-6.1v-14l-8-8.1H98.3v60Zm6.1-6.2V36.7H128l6 6v10.6l-5 5h-24.7Zm0-27.7v-20H127l4.8 4.8v8.6l-6.7 6.6h-20.8Zm3.6 24h19.5l3-3v-6.8l-4.3-4.2h-18.2v14Zm0-27.6h15.5l4.8-4.7v-4.9l-3-3H108V27Zm71 41.1V10.7l10-9.9h31l9.8 9.9V68h-13.5V48.2h-23.7V68H179Zm3.9-4h6.1V44.6h31V64h6.2V12.3l-8-8h-27.3l-8 8V64Zm9.7-29.3h23.7V17.3l-3-3h-17.8l-3 3v17.4Zm-3.6 3.7V15.3l4.9-4.9H215l4.8 4.9v23.1h-31ZM274.6 68l-9.9-9.9v-12h13.6v5.4l3 3h18.4l3-3V44l-3-3h-24.8l-9.9-9.8V10.7l10-9.9h30.4l9.9 9.9v12h-13.6v-5.4l-3-3h-17.2l-3 3v7.4l3 2.9h24.8l9.9 9.9V58l-9.9 9.9h-31.7Zm1.8-3.7h28l8-8V38.8l-7.6-7.6h-25l-4.9-4.8v-11l4.9-4.7h21l4.6 4.5v4.2h6.1v-7.1l-7.7-7.8h-27l-8 8v16.8l8 8.2h25l4.4 4.2v11.6l-4.9 4.9h-22l-4.5-4.6v-4.2h-6.2v7.1l7.8 7.8ZM366 68V14.4h-16.6V.8h46.8v13.6h-16.7V68H366Zm3.7-3.6h6.1V10.6h16.8V4.4H353v6.2h16.8v53.8Zm59.7 3.6V10.7l9.9-9.9h31l9.8 9.9V68h-13.5V48.2H443V68h-13.5Zm3.8-4h6.1V44.6h31V64h6.2V12.3l-8-8h-27.3l-8 8V64Zm9.7-29.3h23.7V17.3l-3-3h-17.8l-2.9 3v17.4Zm-3.6 3.7V15.3l4.9-4.9h21.3l4.8 4.9v23.1h-31ZM530 68V14.4h-16.7V.8h46.9v13.6h-16.7V68H530Zm3.7-3.6h6.1V10.6h16.8V4.4h-39.7v6.2h16.8v53.8ZM603 68l-9.9-9.9v-12h13.6v5.4l3 3h18.4l3-3V44l-3-3h-24.8l-9.9-9.8V10.7l10-9.9h30.4l9.9 9.9v12h-13.6v-5.4l-3-3H610l-3 3v7.4l3 2.9h24.8l9.9 9.9V58l-9.9 9.9h-31.7Zm1.8-3.7h28l8-8V38.8l-7.6-7.6h-25l-4.9-4.8v-11l4.9-4.7h21l4.6 4.5v4.2h6.1v-7.1l-7.7-7.8h-27l-8 8v16.8l8 8.2h25l4.4 4.2v11.6l-4.9 4.9h-22l-4.5-4.6v-4.2H597v7.1l7.8 7.8Z" fill="#fff"/>
</svg>
