<svg width="696" height="68" viewBox="0 0 696 68" fill="none" xmlns="http://www.w3.org/2000/svg">
<path d="M3.696 64.4H9.84V10.784H18.192L35.424 64.304H54.672V4.4H48.528V58.016H40.128L22.992 4.544H3.696V64.4ZM0 68V0.799995H26.064L42.672 54.224H44.736V0.799995H58.32V68H32.256L15.552 14.432H13.584V68H0ZM94.3125 68V0.799995H131.849L141.737 10.688V27.824L137.465 32.096L143.897 38.576V58.112L134.009 68H94.3125ZM98.2005 64.352H132.089L140.201 56.24V39.968L132.761 32.48H131.897L137.993 26.384V12.32L129.977 4.304H98.2005V64.352ZM104.345 58.208V36.704H128.009L134.057 42.704V53.264L129.065 58.208H104.345ZM104.345 30.512V10.496H126.953L131.849 15.296V23.888L125.129 30.512H104.345ZM107.897 54.416H127.385L130.313 51.488V44.72L126.089 40.496H107.897V54.416ZM107.897 26.912H123.401L128.201 22.16V17.312L125.273 14.384H107.897V26.912ZM178.958 68V10.688L188.846 0.799995H219.854L229.742 10.688V68H216.206V48.224H192.494V68H178.958ZM182.798 64.016H188.942V44.624H219.902V64.016H226.094V12.32L218.03 4.304H190.814L182.798 12.32V64.016ZM192.494 34.688H216.206V17.312L213.278 14.384H195.422L192.494 17.312V34.688ZM188.942 38.432V15.296L193.79 10.448H215.054L219.902 15.296V38.432H188.942ZM325.064 68L315.176 58.112V46.016H328.76V51.488L331.688 54.416H350.12L353.048 51.488V44.096L350.12 41.168H325.352L315.464 31.28V10.688L325.352 0.799995H355.832L365.72 10.688V22.784H352.136V17.312L349.208 14.384H331.976L329 17.312V24.656L331.976 27.584H356.744L366.632 37.472V58.112L356.744 68H325.064ZM326.792 64.304H354.776L362.792 56.288V38.816L355.256 31.232H330.248L325.352 26.384V15.488L330.2 10.688H351.176L355.832 15.248V19.376H361.976V12.272L354.2 4.496H327.176L319.16 12.512V29.312L327.272 37.472H352.232L356.6 41.696V53.312L351.752 58.16H329.816L325.208 53.552V49.424H319.016V56.528L326.792 64.304ZM416.444 68V14.384H399.788V0.799995H446.635V14.384H429.98V68H416.444ZM420.14 64.4H426.284V10.592H443.084V4.4H403.34V10.592H420.14V64.4ZM479.801 68V10.688L489.689 0.799995H520.697L530.585 10.688V68H517.049V48.224H493.337V68H479.801ZM483.641 64.016H489.785V44.624H520.745V64.016H526.937V12.32L518.873 4.304H491.657L483.641 12.32V64.016ZM493.337 34.688H517.049V17.312L514.121 14.384H496.265L493.337 17.312V34.688ZM489.785 38.432V15.296L494.633 10.448H515.897L520.745 15.296V38.432H489.785ZM580.319 68V14.384H563.663V0.799995H610.51V14.384H593.855V68H580.319ZM584.015 64.4H590.159V10.592H606.959V4.4H567.215V10.592H584.015V64.4ZM653.564 68L643.676 58.112V46.016H657.26V51.488L660.188 54.416H678.62L681.548 51.488V44.096L678.62 41.168H653.852L643.964 31.28V10.688L653.852 0.799995H684.332L694.22 10.688V22.784H680.636V17.312L677.708 14.384H660.476L657.5 17.312V24.656L660.476 27.584H685.244L695.132 37.472V58.112L685.244 68H653.564ZM655.292 64.304H683.276L691.292 56.288V38.816L683.756 31.232H658.748L653.852 26.384V15.488L658.7 10.688H679.676L684.332 15.248V19.376H690.476V12.272L682.7 4.496H655.676L647.66 12.512V29.312L655.772 37.472H680.732L685.1 41.696V53.312L680.252 58.16H658.316L653.708 53.552V49.424H647.516V56.528L655.292 64.304Z" fill="white"/>
</svg>
