<svg width="108" height="195" viewBox="0 0 108 195" fill="none" xmlns="http://www.w3.org/2000/svg">
<path d="M105.457 63.5885C96.0848 58.3617 90.2632 47.8488 90.2632 36.1529V8.41536L76.9741 1H72.6811L71.9782 1.523C71.9028 1.57903 64.1955 7.22617 54 7.22617C43.8798 7.22617 36.0944 1.57592 36.0218 1.523L35.3189 1H31.0259L17.7368 8.41536V36.1529C17.7368 47.8488 11.9152 58.3617 2.54258 63.5885L1 64.4509V194.011H107V64.4509L105.457 63.5885ZM54 13.4523C63.2359 13.4523 70.5806 9.55786 73.5821 7.69001C73.3199 14.2929 70.8177 29.8521 54 40.9938C37.0316 29.7649 34.6104 14.268 34.3928 7.67445C37.3803 9.53607 44.7389 13.4523 54 13.4523ZM12.1579 187.785H6.57895V68.2426C8.61526 66.9569 10.4479 65.3972 12.1579 63.7131V187.785ZM90.2632 187.785H17.7368V56.5872C21.2795 50.6568 23.3158 43.6274 23.3158 36.1529V12.2631L28.8836 9.15628C29.4387 17.8822 33.1515 35.219 52.6443 47.304L54 48.1445L55.3557 47.304C74.8485 35.219 78.5613 17.8822 79.1164 9.15628L84.6842 12.2631V36.1529C84.6842 43.6274 86.7205 50.6568 90.2632 56.5872V187.785ZM101.421 187.785H95.8421V63.7131C97.5521 65.3972 99.3847 66.9538 101.421 68.2426V187.785Z" fill="white" stroke="white" stroke-width="0.302419"/>
<path d="M56.7899 16.5654H51.2109V22.7916H56.7899V16.5654Z" fill="white" stroke="white" stroke-width="0.302419"/>
<path d="M67.9471 16.5654H62.3682V22.7916H67.9471V16.5654Z" fill="white" stroke="white" stroke-width="0.302419"/>
<path d="M45.6317 16.5654H40.0527V22.7916H45.6317V16.5654Z" fill="white" stroke="white" stroke-width="0.302419"/>
</svg>
